<svg width="24" height="24" viewBox="0 0 24 24" fill="none" xmlns="http://www.w3.org/2000/svg">
<path d="M20 13H17.6052C17.311 13 17.0209 13.0663 16.7578 13.1936L14.7158 14.1816C14.4528 14.3089 14.1626 14.3751 13.8685 14.3751H12.8259C11.8175 14.3751 11 15.1662 11 16.142C11 16.1814 11.027 16.2161 11.0662 16.2269L13.6071 16.9295C14.0629 17.0555 14.551 17.0116 14.975 16.8064L17.1579 15.7503" stroke="#2C2C2E" stroke-width="1.5" stroke-linecap="round" stroke-linejoin="round"/>
<path d="M11 15.5L6.4072 14.0889C5.593 13.8352 4.7129 14.136 4.2029 14.8423C3.8341 15.3529 3.9843 16.0842 4.5215 16.3942L12.0371 20.7305C12.5151 21.0063 13.0791 21.0736 13.6048 20.9176L20 19.0199" stroke="#2C2C2E" stroke-width="1.5" stroke-linecap="round" stroke-linejoin="round"/>
<path d="M15 10H18" stroke="#2C2C2E" stroke-width="1.5" stroke-linecap="round" stroke-linejoin="round"/>
<path d="M10 10H13" stroke="#2C2C2E" stroke-width="1.5" stroke-linecap="round" stroke-linejoin="round"/>
<path d="M10 7H13" stroke="#2C2C2E" stroke-width="1.5" stroke-linecap="round" stroke-linejoin="round"/>
<path d="M15 7H18" stroke="#2C2C2E" stroke-width="1.5" stroke-linecap="round" stroke-linejoin="round"/>
<path d="M10 4H13" stroke="#2C2C2E" stroke-width="1.5" stroke-linecap="round" stroke-linejoin="round"/>
<path d="M5 10H8" stroke="#2C2C2E" stroke-width="1.5" stroke-linecap="round" stroke-linejoin="round"/>
<path d="M5 7H8" stroke="#2C2C2E" stroke-width="1.5" stroke-linecap="round" stroke-linejoin="round"/>
</svg>
