<svg width="16" height="17" viewBox="0 0 16 17" fill="none" xmlns="http://www.w3.org/2000/svg">
<g id="Frame">
<path id="Vector" d="M6 10.3333C6 8.44765 6 7.50485 6.58579 6.91904C7.1716 6.33325 8.1144 6.33325 10 6.33325H10.6667C12.5523 6.33325 13.4951 6.33325 14.0809 6.91904C14.6667 7.50485 14.6667 8.44765 14.6667 10.3333V10.9999C14.6667 12.8855 14.6667 13.8283 14.0809 14.4141C13.4951 14.9999 12.5523 14.9999 10.6667 14.9999H10C8.1144 14.9999 7.1716 14.9999 6.58579 14.4141C6 13.8283 6 12.8855 6 10.9999V10.3333Z" stroke="#D1D1D6" stroke-linecap="round" stroke-linejoin="round"/>
<path id="Vector_2" d="M11.3329 6.33317C11.3313 4.36178 11.3015 3.34064 10.7277 2.64146C10.6169 2.50643 10.4931 2.38262 10.3581 2.27181C9.62047 1.6665 8.52467 1.6665 6.33301 1.6665C4.14135 1.6665 3.04553 1.6665 2.30796 2.27181C2.17293 2.38262 2.04913 2.50643 1.93831 2.64146C1.33301 3.37902 1.33301 4.47485 1.33301 6.6665C1.33301 8.85817 1.33301 9.95397 1.93831 10.6916C2.04912 10.8266 2.17293 10.9504 2.30796 11.0612C3.00715 11.635 4.02828 11.6648 5.99967 11.6664" stroke="#D1D1D6" stroke-linecap="round" stroke-linejoin="round"/>
</g>
</svg>
