<svg xmlns="http://www.w3.org/2000/svg" width="16" height="16" viewBox="0 0 16 16" fill="none">
    <g clip-path="url(#clip0_1966_7546)">
        <path d="M6 10C6 8.1144 6 7.1716 6.58579 6.58579C7.1716 6 8.1144 6 10 6H10.6667C12.5523 6 13.4951 6 14.0809 6.58579C14.6667 7.1716 14.6667 8.1144 14.6667 10V10.6667C14.6667 12.5523 14.6667 13.4951 14.0809 14.0809C13.4951 14.6667 12.5523 14.6667 10.6667 14.6667H10C8.1144 14.6667 7.1716 14.6667 6.58579 14.0809C6 13.4951 6 12.5523 6 10.6667V10Z" stroke="#D1D1D6" stroke-linecap="round" stroke-linejoin="round"/>
        <path d="M11.3333 5.99967C11.3317 4.02828 11.3019 3.00715 10.728 2.30796C10.6172 2.17293 10.4934 2.04913 10.3584 1.93831C9.62079 1.33301 8.525 1.33301 6.33333 1.33301C4.14167 1.33301 3.04585 1.33301 2.30828 1.93831C2.17325 2.04912 2.04945 2.17293 1.93863 2.30796C1.33333 3.04553 1.33333 4.14135 1.33333 6.33301C1.33333 8.52467 1.33333 9.62047 1.93863 10.3581C2.04944 10.4931 2.17325 10.6169 2.30828 10.7277C3.00747 11.3015 4.0286 11.3313 6 11.3329" stroke="#D1D1D6" stroke-linecap="round" stroke-linejoin="round"/>
    </g>
    <defs>
        <clipPath id="clip0_1966_7546">
        <rect width="16" height="16" fill="white"/>
        </clipPath>
    </defs>
</svg>