<svg width="24" height="24" viewBox="0 0 24 24" fill="none" xmlns="http://www.w3.org/2000/svg">
<g id="Group 1707480700">
<g id="Ellipse 4">
<circle cx="12" cy="12" r="12" fill="#1E1E1E"/>
<circle cx="12" cy="12" r="12" fill="#FFCC00" fill-opacity="0.3"/>
</g>
<path id="Vector" fill-rule="evenodd" clip-rule="evenodd" d="M12 22C17.5228 22 22 17.5228 22 12C22 6.47715 17.5228 2 12 2C6.47715 2 2 6.47715 2 12C2 17.5228 6.47715 22 12 22ZM12 24C18.6274 24 24 18.6274 24 12C24 5.37258 18.6274 0 12 0C5.37258 0 0 5.37258 0 12C0 18.6274 5.37258 24 12 24Z" fill="#FFCC00"/>
<g id="Group 1707480701">
<path id="Vector_2" d="M12.0151 7.91797L10.3242 11.2038L12.0151 15.6238L17.127 13.1595V7.91797H12.0151Z" fill="#FFCC00"/>
<path id="Vector_3" d="M6.89844 7.91797V13.1595L12.0104 15.6238V7.91797H6.89844Z" fill="#FEE068"/>
<path id="Vector_4" d="M6.89844 7.91669L12.0104 10.1464L17.1224 7.91669L12.0104 6L6.89844 7.91669Z" fill="#FFEEA9"/>
<path id="Vector_5" d="M9.9693 15.0519L9.65957 14.4866L8.6462 12.6463C8.46577 12.3155 8.04479 12.2253 7.74408 12.4659C7.50352 12.6463 7.44338 12.9771 7.59373 13.2477L7.70499 13.4552L7.77115 13.5785L7.98465 13.9694L7.75371 13.5698L7.23589 13.3169L6.90211 13.1575V9.39268C6.83896 9.35359 6.7668 9.32352 6.69162 9.30848C6.33077 9.24834 6 9.54905 6 9.90989V12.7666C6 13.0673 6.09021 13.368 6.24056 13.6086L7.8343 16.5254V17.1268H10.2399V16.0743C10.2399 15.7135 10.1497 15.3526 9.9693 15.0519ZM17.3365 9.30848C17.2614 9.32352 17.1892 9.35359 17.1261 9.39268V13.1575L16.8013 13.3139L16.2751 13.5665L16.0435 13.9694L16.257 13.5785L16.3232 13.4552L16.4344 13.2477C16.5848 12.9771 16.5246 12.6463 16.2841 12.4659C15.9834 12.2253 15.5624 12.3155 15.382 12.6463L14.3686 14.4866L14.0589 15.0519C13.8784 15.3526 13.7882 15.7135 13.7882 16.0743V17.1268H16.1939V16.5254L17.7876 13.6086C17.938 13.3379 17.9981 13.0372 17.9981 12.7365V9.90989C18.0282 9.54905 17.6974 9.24834 17.3365 9.30848Z" fill="white"/>
<path id="Vector_6" d="M16.6992 16.8906L16.6992 17.5952C16.6992 17.8201 16.515 18 16.2847 18L13.6137 18C13.3834 18 13.1992 17.8201 13.1992 17.5952L13.1992 16.9056C13.1992 16.6808 13.3834 16.5009 13.6137 16.5009L16.2847 16.5009C16.515 16.4859 16.6992 16.6658 16.6992 16.8906Z" fill="#FFCC00"/>
<path id="Vector_7" d="M10.8008 16.8906L10.8008 17.5952C10.8008 17.8201 10.6166 18 10.3863 18L7.71526 18C7.48499 18 7.30078 17.8201 7.30078 17.5952L7.30078 16.9056C7.30078 16.6808 7.48499 16.5009 7.71526 16.5009L10.3863 16.5009C10.6166 16.4859 10.8008 16.6658 10.8008 16.8906Z" fill="#FFCC00"/>
<path id="Vector_8" d="M16.2876 13.0701C16.1974 13.2806 16.017 13.1904 15.8065 13.1002C15.596 13.01 15.4757 12.8897 15.5659 12.7093C15.6562 12.4988 15.9268 12.4387 16.1072 12.5289C16.3177 12.6191 16.4079 12.8597 16.2876 13.0701ZM7.74764 13.0701C7.83785 13.2806 8.01827 13.1904 8.22876 13.1002C8.43926 13.01 8.55954 12.8897 8.46933 12.7093C8.37911 12.4988 8.10848 12.4387 7.92806 12.5289C7.74764 12.6191 7.62735 12.8597 7.74764 13.0701Z" fill="white"/>
</g>
</g>
</svg>
