<svg width="24" height="24" viewBox="0 0 24 24" fill="none" xmlns="http://www.w3.org/2000/svg">
<path d="M6 0C5.175 0 4.5 0.675 4.5 1.5V22.5C4.5 23.325 5.175 24 6 24H21C21.825 24 22.5 23.325 22.5 22.5V6L16.5 0H6Z" fill="#E2E5E7"/>
<path d="M18 6H22.5L16.5 0V4.5C16.5 5.325 17.175 6 18 6Z" fill="#B0B7BD"/>
<path d="M22.5 10.5L18 6H22.5V10.5Z" fill="#CAD1D8"/>
<path d="M19.5 19.5C19.5 19.9125 19.1625 20.25 18.75 20.25H2.25C1.8375 20.25 1.5 19.9125 1.5 19.5V12C1.5 11.5875 1.8375 11.25 2.25 11.25H18.75C19.1625 11.25 19.5 11.5875 19.5 12V19.5Z" fill="#50BEE8"/>
<path d="M4.33587 17.9935C4.13787 17.9935 3.92188 17.8848 3.92188 17.6215V14.2158C3.92188 13.9998 4.13787 13.8438 4.33587 13.8438H5.70912C8.44963 13.8438 8.38888 17.9935 5.76237 17.9935H4.33587ZM4.71387 14.575V17.2615H5.70912C7.32837 17.2615 7.39962 14.575 5.70912 14.575H4.71387Z" fill="white"/>
<path d="M10.6831 18.0551C9.57388 18.1031 8.42188 17.3651 8.42188 15.8958C8.42188 14.4206 9.57313 13.6953 10.6831 13.6953C11.7324 13.7486 12.8296 14.4746 12.8296 15.8958C12.8296 17.3178 11.7324 18.0551 10.6831 18.0551ZM10.6171 14.4753C9.94512 14.4753 9.21388 14.9493 9.21388 15.8966C9.21388 16.8386 9.94587 17.3186 10.6171 17.3186C11.3071 17.3186 12.0444 16.8386 12.0444 15.8966C12.0444 14.9486 11.3071 14.4753 10.6171 14.4753Z" fill="white"/>
<path d="M13.5352 15.8869C13.5352 14.7296 14.2612 13.7344 15.6404 13.7344C16.1624 13.7344 16.5764 13.8904 17.0137 14.2684C17.1757 14.4176 17.1937 14.6816 17.0317 14.8496C16.8697 14.9929 16.6237 14.9756 16.4797 14.8316C16.2344 14.5736 15.9824 14.5024 15.6404 14.5024C14.7172 14.5024 14.2739 15.1564 14.2739 15.8876C14.2739 16.6316 14.7112 17.3149 15.6404 17.3149C15.9824 17.3149 16.3004 17.1761 16.5764 16.9309C16.7617 16.7869 17.0197 16.8581 17.1277 17.0029C17.2237 17.1349 17.2709 17.3569 17.0617 17.5661C16.6417 17.9569 16.1384 18.0349 15.6397 18.0349C14.1892 18.0349 13.5352 17.0441 13.5352 15.8869Z" fill="white"/>
<path d="M18.75 20.25H4.5V21H18.75C19.1625 21 19.5 20.6625 19.5 20.25V19.5C19.5 19.9125 19.1625 20.25 18.75 20.25Z" fill="#CAD1D8"/>
</svg>
