<svg width="20" height="20" viewBox="0 0 20 20" fill="none" xmlns="http://www.w3.org/2000/svg">
<g id="Frame">
<path id="Vector" d="M11.7294 3.23918C12.3504 2.56637 12.6609 2.22997 12.9908 2.03374C13.7869 1.56027 14.7672 1.54554 15.5766 1.9949C15.9121 2.18114 16.2321 2.50807 16.8721 3.16194C17.5122 3.8158 17.8323 4.14274 18.0146 4.48541C18.4545 5.31224 18.4401 6.31363 17.9766 7.12689C17.7845 7.46394 17.4551 7.78112 16.7966 8.41547L8.96014 15.9632C7.71204 17.1654 7.08797 17.7665 6.30802 18.0711C5.52807 18.3757 4.67064 18.3533 2.95577 18.3085L2.72245 18.3024C2.20039 18.2887 1.93936 18.2819 1.78763 18.1096C1.63589 17.9375 1.6566 17.6716 1.69804 17.1398L1.72054 16.8511C1.83714 15.3542 1.89544 14.6059 2.18773 13.9331C2.48 13.2604 2.98417 12.7142 3.99249 11.6217L11.7294 3.23918Z" stroke="#006736" stroke-width="1.25" stroke-linejoin="round"/>
<path id="Vector_2" d="M10.832 3.33203L16.6654 9.16536" stroke="#006736" stroke-width="1.25" stroke-linejoin="round"/>
<path id="Vector_3" d="M11.668 18.332H18.3346" stroke="#006736" stroke-width="1.25" stroke-linecap="round" stroke-linejoin="round"/>
</g>
</svg>
