<svg width="42" height="42" viewBox="0 0 42 42" fill="none" xmlns="http://www.w3.org/2000/svg">
<g id="cancel-circle-solid-rounded 1">
<path id="Vector" fill-rule="evenodd" clip-rule="evenodd" d="M20.5586 39.8115C10.1687 39.8115 1.74609 31.389 1.74609 20.999C1.74609 10.6092 10.1687 2.18652 20.5586 2.18652C30.9485 2.18652 39.3711 10.6092 39.3711 20.999C39.3711 31.389 30.9485 39.8115 20.5586 39.8115ZM27.046 16.9865C27.7294 16.3031 27.7294 15.1951 27.046 14.5116C26.3626 13.8282 25.2547 13.8282 24.5712 14.5115L20.5582 18.5242L16.546 14.5122C15.8625 13.8288 14.7545 13.8289 14.0711 14.5123C13.3877 15.1958 13.3878 16.3038 14.0712 16.9872L18.0832 20.999L14.0712 25.0109C13.3878 25.6943 13.3877 26.8024 14.0711 27.4858C14.7545 28.1691 15.8625 28.1691 16.546 27.4858L20.5582 23.4739L24.5712 27.4865C25.2547 28.1698 26.3626 28.1698 27.046 27.4865C27.7294 26.8029 27.7294 25.695 27.046 25.0116L23.0333 20.999L27.046 16.9865Z" fill="#FF3B30"/>
</g>
</svg>
