<svg width="18" height="18" viewBox="0 0 18 18" fill="none" xmlns="http://www.w3.org/2000/svg">
<path d="M6.21054 9.45377C3.99858 7.79999 2.42225 5.98093 1.56154 4.95828C1.29511 4.64171 1.2078 4.41004 1.15531 4.00195C0.975561 2.60462 0.885694 1.90595 1.29542 1.45493C1.70515 1.00391 2.42972 1.00391 3.87887 1.00391H14.129C15.5781 1.00391 16.3027 1.00391 16.7123 1.45493C17.1221 1.90595 17.0323 2.60462 16.8525 4.00196C16.8 4.41005 16.7127 4.64172 16.4462 4.95828C15.5843 5.98223 14.0049 7.80452 11.7884 9.46035C11.5879 9.61021 11.4557 9.8543 11.4312 10.1251C11.2116 12.5523 11.0091 13.8818 10.8831 14.5543C10.6797 15.6401 9.14008 16.2933 8.3159 16.8762C7.82533 17.2231 7.22995 16.8101 7.16638 16.2731C7.04518 15.2493 6.81689 13.1696 6.5677 10.1251C6.54532 9.85181 6.41267 9.60488 6.21054 9.45377Z" stroke="#AEAEB2" stroke-width="1.33333" stroke-linecap="round" stroke-linejoin="round"/>
</svg>
