<svg width="24" height="24" viewBox="0 0 24 24" fill="none" xmlns="http://www.w3.org/2000/svg">
<g id="Group 1707480698">
<g id="Ellipse 4">
<circle cx="12" cy="12" r="12" fill="#1E1E1E"/>
<circle cx="12" cy="12" r="12" fill="#FF9500" fill-opacity="0.3"/>
</g>
<path id="Vector" fill-rule="evenodd" clip-rule="evenodd" d="M12 22C17.5228 22 22 17.5228 22 12C22 6.47715 17.5228 2 12 2C6.47715 2 2 6.47715 2 12C2 17.5228 6.47715 22 12 22ZM12 24C18.6274 24 24 18.6274 24 12C24 5.37258 18.6274 0 12 0C5.37258 0 0 5.37258 0 12C0 18.6274 5.37258 24 12 24Z" fill="#FF9500"/>
<g id="Group 1707480702">
<path id="Union" fill-rule="evenodd" clip-rule="evenodd" d="M13.2173 6.1703C13.3455 6.0578 13.4959 5.92578 13.7049 5.92578C13.9137 5.92578 14.0638 6.05754 14.1918 6.16997L14.1939 6.17177C14.3224 6.28458 14.435 6.37985 14.5432 6.39623C14.6502 6.41242 14.8594 6.30333 15.0606 6.19673C15.1611 6.14343 15.26 6.09282 15.3686 6.07672C15.4772 6.06062 15.6115 6.10475 15.6806 6.21552C15.7806 6.3759 15.7368 6.5663 15.6453 6.72375C15.5538 6.8812 15.4125 7.02888 15.2646 7.16167C14.9689 7.42726 14.6414 7.63052 14.6414 7.63052C14.6228 7.64216 14.6013 7.64835 14.5794 7.64838H12.8302C12.8083 7.64831 12.7869 7.64212 12.7684 7.63052C12.7684 7.63052 12.4407 7.42726 12.1449 7.16167C11.997 7.02888 11.8557 6.8812 11.7642 6.72375C11.6728 6.5663 11.629 6.3759 11.729 6.21552C11.7981 6.10475 11.9323 6.06062 12.0409 6.07672C12.1495 6.09282 12.2484 6.14343 12.349 6.19673C12.5501 6.30333 12.7594 6.41242 12.8664 6.39623C12.9746 6.37985 13.0872 6.28458 13.2157 6.17177L13.2173 6.1703ZM12.7887 7.89093C12.8024 7.88561 12.8169 7.88289 12.8316 7.88292L14.5782 7.88292C14.5928 7.88292 14.6072 7.88564 14.6208 7.89093C15.1252 8.08828 15.5351 8.56055 15.8249 9.11263C16.1147 9.6647 16.2848 10.3003 16.2848 10.851C16.2848 11.5628 15.9745 12.0029 15.4964 12.2294C15.0184 12.4559 14.3897 12.4928 13.7049 12.4928C13.0201 12.4928 12.3914 12.4559 11.9134 12.2294C11.4353 12.0029 11.125 11.5628 11.125 10.851C11.125 10.3003 11.2949 9.6647 11.5847 9.11263C11.8745 8.56055 12.2844 8.08828 12.7887 7.89093Z" fill="#FF9500"/>
<path id="Vector_2" d="M17.8487 13.902C17.3755 14.4878 16.6095 15.3665 16.204 15.6819C15.4379 16.2452 13.7031 17.259 12.7569 17.259C11.4726 17.2816 8.09312 15.2764 7.98047 15.2764V12.2123C11.3825 12.0996 11.4276 13.8345 11.4276 13.8345H13.2525C13.4102 13.8345 13.5454 13.902 13.6581 13.9922C13.7482 14.1048 13.8158 14.24 13.8158 14.3977C13.8158 14.7131 13.5679 14.961 13.2525 14.961C13.2525 14.961 14.2438 14.9835 14.5818 14.9159C15.3253 14.7807 16.8799 12.9558 16.8799 12.9558C17.015 12.8431 17.1728 12.7981 17.3305 12.7981C17.4882 12.7981 17.6459 12.8657 17.7811 12.9783C18.0514 13.2036 18.074 13.6092 17.8487 13.902Z" fill="white"/>
<path id="Vector_3" d="M7.37035 16.34H6.31144C5.97349 16.34 5.70312 16.0696 5.70312 15.7317V11.8114C5.70312 11.4735 5.97349 11.2031 6.31144 11.2031H7.34782C7.68578 11.2031 7.95614 11.4735 7.95614 11.8114V15.7317C7.97867 16.0696 7.70831 16.34 7.37035 16.34Z" fill="#FF9500"/>
</g>
</g>
</svg>
