<svg width="18" height="18" viewBox="0 0 18 18" fill="none" xmlns="http://www.w3.org/2000/svg">
<path fill-rule="evenodd" clip-rule="evenodd" d="M9 18C13.9706 18 18 13.9706 18 9C18 4.02944 13.9706 0 9 0C4.02944 0 0 4.02944 0 9C0 13.9706 4.02944 18 9 18ZM9.14063 4.14203C8.82546 4.14203 8.59864 4.34113 8.40536 4.51078L8.40284 4.51299C8.20904 4.68312 8.03928 4.82679 7.8761 4.85149C7.71477 4.87591 7.39916 4.7114 7.09584 4.55064C6.94417 4.47026 6.79505 4.39393 6.63127 4.36965C6.46749 4.34537 6.26501 4.41192 6.16083 4.57896C6.01 4.82083 6.07605 5.10797 6.21402 5.34542C6.352 5.58286 6.56504 5.80556 6.78808 6.00583C7.23413 6.40635 7.72827 6.71287 7.72827 6.71287C7.75624 6.73037 7.78854 6.7397 7.82153 6.73981H10.4594C10.4925 6.73977 10.5249 6.73043 10.553 6.71287C10.553 6.71287 11.0468 6.40635 11.4928 6.00583C11.7158 5.80556 11.9289 5.58286 12.0669 5.34542C12.2048 5.10797 12.2709 4.82083 12.1201 4.57896C12.0159 4.41192 11.8134 4.34537 11.6496 4.36965C11.4859 4.39393 11.3367 4.47026 11.1851 4.55064C10.8818 4.7114 10.5662 4.87591 10.4048 4.85149C10.2416 4.82679 10.0719 4.68312 9.87806 4.51299L9.87496 4.51027C9.68184 4.34073 9.4555 4.14203 9.14063 4.14203ZM7.8236 7.0935C7.80151 7.09346 7.7796 7.09756 7.75901 7.10559C6.99838 7.4032 6.38027 8.11541 5.94322 8.94797C5.50618 9.78054 5.25 10.7391 5.25 11.5696C5.25 12.6429 5.71789 13.3067 6.43888 13.6482C7.15987 13.9898 8.10797 14.0454 9.14063 14.0454C10.1733 14.0454 11.1214 13.9898 11.8424 13.6482C12.5634 13.3067 13.0313 12.6429 13.0313 11.5696C13.0313 10.7391 12.7747 9.78054 12.3377 8.94797C11.9006 8.11541 11.2825 7.4032 10.5219 7.10559C10.5014 7.0976 10.4796 7.0935 10.4577 7.0935L7.8236 7.0935Z" fill="#FF9500"/>
</svg>
