<svg width="24" height="24" viewBox="0 0 24 24" fill="none" xmlns="http://www.w3.org/2000/svg">
<g id="For Sale">
<g id="Ellipse 4">
<circle cx="12" cy="12" r="12" fill="#1E1E1E"/>
<circle cx="12" cy="12" r="12" fill="#10B981" fill-opacity="0.35"/>
</g>
<path id="Vector" fill-rule="evenodd" clip-rule="evenodd" d="M12 22C17.5228 22 22 17.5228 22 12C22 6.47715 17.5228 2 12 2C6.47715 2 2 6.47715 2 12C2 17.5228 6.47715 22 12 22ZM12 24C18.6274 24 24 18.6274 24 12C24 5.37258 18.6274 0 12 0C5.37258 0 0 5.37258 0 12C0 18.6274 5.37258 24 12 24Z" fill="#10B981"/>
<g id="Group 1707480697">
<path id="Vector_2" d="M12.71 15.9297H6.34561C5.8783 15.9297 5.5 16.308 5.5 16.7753C5.5 17.2426 5.8783 17.6209 6.34561 17.6209H12.71C13.1773 17.6209 13.5556 17.2426 13.5556 16.7753C13.5556 16.2857 13.1773 15.9297 12.71 15.9297Z" fill="#10B981"/>
<path id="Vector_3" d="M12.4186 15.3296V15.9305H6.63281V15.3296C6.63281 14.9068 6.98886 14.5508 7.41167 14.5508H11.6397C12.0625 14.5508 12.4186 14.9068 12.4186 15.3296Z" fill="#10B981"/>
<path id="Vector_4" d="M12.3963 15.3711H6.63281V15.9274H12.3963V15.3711Z" fill="#048F61"/>
<path id="Vector_5" d="M11.7316 8.6266L9.35054 7.55846C9.0835 7.44719 8.79422 7.55846 8.6607 7.82549L7.79283 9.78375C7.68157 10.0508 7.79283 10.3401 8.05987 10.4736L10.4409 11.5417C10.708 11.653 10.9973 11.5417 11.1308 11.2747L11.9986 9.31644C12.1099 9.04941 11.9764 8.73786 11.7316 8.6266Z" fill="white"/>
<path id="Vector_6" d="M12.4608 6.96254L10.0798 5.89439C9.81274 5.78313 9.52345 5.89439 9.38993 6.16143C9.27866 6.42847 9.38993 6.71775 9.65697 6.85127L12.038 7.91942C12.3051 8.03068 12.5944 7.91942 12.7279 7.65238C12.8391 7.38534 12.7279 7.0738 12.4608 6.96254ZM10.102 12.281L7.72096 11.2129C7.45392 11.1016 7.16463 11.2129 7.03111 11.4799C6.91985 11.7469 7.03111 12.0362 7.29815 12.1697L9.67922 13.2379C9.94625 13.3491 10.2355 13.2379 10.3691 12.9708C10.4803 12.7038 10.3691 12.3923 10.102 12.281Z" fill="#10B981"/>
<path id="Vector_7" d="M11.7027 8.63864L12.0273 7.90625L9.64707 6.85126L9.32245 7.58365L11.7027 8.63864Z" fill="#048F61"/>
<path id="Vector_8" d="M10.0934 12.2832L10.418 11.5508L8.03769 10.4958L7.71308 11.2282L10.0934 12.2832Z" fill="#048F61"/>
<path id="Vector_9" d="M18.6298 12.3247L11.7982 9.76562L11.3086 10.8338L17.8065 14.1717C18.3405 14.4388 18.9636 14.2162 19.2084 13.6822C19.4532 13.1481 19.1862 12.525 18.6298 12.3247Z" fill="#FFCA7F"/>
<path id="Vector_10" d="M19.2078 13.7086C18.963 14.2427 18.3177 14.4652 17.8058 14.1982L13.6445 12.0619C14.2009 11.8393 14.6459 11.4388 14.9575 10.9492L18.6292 12.3289C19.1855 12.5292 19.4526 13.1523 19.2078 13.7086Z" fill="#FFB54D"/>
<path id="Vector_11" d="M19.2062 13.7044C18.9614 14.2384 18.3161 14.461 17.8043 14.1939L15.668 13.0813C16.2911 12.7475 16.7806 12.3024 17.1144 11.7461L18.6499 12.3247C19.1839 12.5249 19.451 13.148 19.2062 13.7044Z" fill="#FF9500"/>
</g>
</g>
</svg>
