<svg width="20" height="21" viewBox="0 0 20 21" fill="none" xmlns="http://www.w3.org/2000/svg">
<path d="M18.7511 10.6941C18.7511 9.97471 18.6915 9.44971 18.5626 8.90527H10.1797V12.1525H15.1003C15.0011 12.9594 14.4654 14.1747 13.2749 14.9913L13.2582 15.1L15.9087 17.1123L16.0924 17.1303C17.7788 15.6039 18.7511 13.358 18.7511 10.6941Z" fill="#4285F4"/>
<path d="M10.1793 19.25C12.59 19.25 14.6138 18.4722 16.092 17.1305L13.2745 14.9916C12.5206 15.5068 11.5086 15.8666 10.1793 15.8666C7.81822 15.8666 5.81427 14.3402 5.09992 12.2305L4.99522 12.2392L2.23917 14.3295L2.20312 14.4277C3.67136 17.286 6.68723 19.25 10.1793 19.25Z" fill="#34A853"/>
<path d="M5.10014 12.2307C4.91165 11.6863 4.80257 11.1029 4.80257 10.5002C4.80257 9.89735 4.91165 9.31403 5.09022 8.7696L5.08523 8.65365L2.29464 6.52979L2.20333 6.57235C1.5982 7.75847 1.25098 9.09044 1.25098 10.5002C1.25098 11.9099 1.5982 13.2418 2.20333 14.4279L5.10014 12.2307Z" fill="#FBBC05"/>
<path d="M10.1794 5.13331C11.8559 5.13331 12.9868 5.84303 13.6317 6.43613L16.1516 4.025C14.604 2.61528 12.59 1.75 10.1794 1.75C6.68725 1.75 3.67137 3.71387 2.20312 6.57218L5.09002 8.76944C5.8143 6.65972 7.81825 5.13331 10.1794 5.13331Z" fill="#EB4335"/>
</svg>
