<svg width="24" height="24" viewBox="0 0 24 24" fill="none" xmlns="http://www.w3.org/2000/svg">
<path d="M6 0C5.175 0 4.5 0.675 4.5 1.5V22.5C4.5 23.325 5.175 24 6 24H21C21.825 24 22.5 23.325 22.5 22.5V6L16.5 0H6Z" fill="#E2E5E7"/>
<path d="M18 6H22.5L16.5 0V4.5C16.5 5.325 17.175 6 18 6Z" fill="#B0B7BD"/>
<path d="M22.5 10.5L18 6H22.5V10.5Z" fill="#CAD1D8"/>
<path d="M19.5 19.5C19.5 19.9125 19.1625 20.25 18.75 20.25H2.25C1.8375 20.25 1.5 19.9125 1.5 19.5V12C1.5 11.5875 1.8375 11.25 2.25 11.25H18.75C19.1625 11.25 19.5 11.5875 19.5 12V19.5Z" fill="#50BEE8"/>
<path d="M6.65584 14.2061C6.65584 13.7021 7.44784 13.7021 7.44784 14.2061V16.5746C7.44784 17.5166 6.99784 18.0866 5.96059 18.0866C5.45059 18.0866 5.02534 17.9479 4.65334 17.4686C4.34734 17.1026 4.92334 16.5754 5.23534 16.9586C5.48734 17.2706 5.75734 17.3426 6.02059 17.3306C6.35584 17.3186 6.65058 17.1679 6.65658 16.5746V14.2061H6.65584Z" fill="white"/>
<path d="M8.50391 14.2109C8.50391 14.0129 8.65991 13.7969 8.91191 13.7969H10.2972C11.0772 13.7969 11.7792 14.3189 11.7792 15.3194C11.7792 16.2674 11.0772 16.7954 10.2972 16.7954H9.29591V17.5874C9.29591 17.8514 9.12791 18.0006 8.91191 18.0006C8.71391 18.0006 8.50391 17.8514 8.50391 17.5874V14.2109ZM9.29591 14.5521V16.0461H10.2972C10.6992 16.0461 11.0172 15.6914 11.0172 15.3194C11.0172 14.9001 10.6992 14.5521 10.2972 14.5521H9.29591Z" fill="white"/>
<path d="M16.0621 17.5372C15.6361 17.8912 15.1141 18.0412 14.5868 18.0412C13.3268 18.0412 12.4336 17.3219 12.4336 15.8939C12.4336 14.6834 13.3756 13.7422 14.6401 13.7422C15.1141 13.7422 15.6353 13.9034 16.0073 14.2694C16.3726 14.6287 15.8453 15.1627 15.4861 14.8454C15.2641 14.6294 14.9521 14.4674 14.6401 14.4674C13.9148 14.4674 13.2136 15.0487 13.2136 15.8939C13.2136 16.7819 13.8008 17.3219 14.5868 17.3219C14.9521 17.3219 15.2641 17.2132 15.4861 17.0519V16.3147H14.5868C14.0528 16.3147 14.1068 15.5827 14.5868 15.5827H15.7861C16.0081 15.5827 16.2113 15.7507 16.2113 15.9367V17.2139C16.2113 17.3219 16.1641 17.4224 16.0621 17.5372Z" fill="white"/>
<path d="M18.75 20.25H4.5V21H18.75C19.1625 21 19.5 20.6625 19.5 20.25V19.5C19.5 19.9125 19.1625 20.25 18.75 20.25Z" fill="#CAD1D8"/>
</svg>
