<svg width="24" height="24" viewBox="0 0 24 24" fill="none" xmlns="http://www.w3.org/2000/svg">
<path d="M4 13H6.39482C6.68897 13 6.97908 13.0663 7.24217 13.1936L9.28415 14.1816C9.54724 14.3089 9.83735 14.3751 10.1315 14.3751H11.1741C12.1825 14.3751 13 15.1662 13 16.142C13 16.1814 12.973 16.2161 12.9338 16.2269L10.3929 16.9295C9.93707 17.0555 9.449 17.0116 9.025 16.8064L6.84211 15.7503" stroke="#2C2C2E" stroke-width="1.5" stroke-linecap="round" stroke-linejoin="round"/>
<path d="M13 15.5L17.5928 14.0889C18.407 13.8352 19.2871 14.136 19.7971 14.8423C20.1659 15.3529 20.0157 16.0842 19.4785 16.3942L11.9629 20.7305C11.4849 21.0063 10.9209 21.0736 10.3952 20.9176L4 19.0199" stroke="#2C2C2E" stroke-width="1.5" stroke-linecap="round" stroke-linejoin="round"/>
<path d="M9 10H6" stroke="#2C2C2E" stroke-width="1.5" stroke-linecap="round" stroke-linejoin="round"/>
<path d="M14 10H11" stroke="#2C2C2E" stroke-width="1.5" stroke-linecap="round" stroke-linejoin="round"/>
<path d="M14 7H11" stroke="#2C2C2E" stroke-width="1.5" stroke-linecap="round" stroke-linejoin="round"/>
<path d="M9 7H6" stroke="#2C2C2E" stroke-width="1.5" stroke-linecap="round" stroke-linejoin="round"/>
<path d="M9 4H6" stroke="#2C2C2E" stroke-width="1.5" stroke-linecap="round" stroke-linejoin="round"/>
<path d="M14 4H11" stroke="#2C2C2E" stroke-width="1.5" stroke-linecap="round" stroke-linejoin="round"/>
<path d="M19 10H16" stroke="#2C2C2E" stroke-width="1.5" stroke-linecap="round" stroke-linejoin="round"/>
<path d="M19 7H16" stroke="#2C2C2E" stroke-width="1.5" stroke-linecap="round" stroke-linejoin="round"/>
</svg>
