<svg width="24" height="24" viewBox="0 0 24 24" fill="none" xmlns="http://www.w3.org/2000/svg">
<path d="M9.65594 9.77316C9.36493 9.47841 8.89006 9.47538 8.59531 9.7664C8.30055 10.0574 8.29752 10.5323 8.58854 10.827L9.65594 9.77316ZM15.4108 9.77261C15.1198 9.47778 14.645 9.47464 14.3501 9.76559C14.0553 10.0565 14.0522 10.5314 14.3431 10.8262L15.4108 9.77261ZM10.8723 8.68818C10.9762 8.28722 10.7354 7.87792 10.3345 7.77399C9.93349 7.67006 9.5242 7.91085 9.42027 8.31182L10.8723 8.68818ZM16.6263 8.68818C16.7302 8.28722 16.4895 7.87792 16.0885 7.77399C15.6875 7.67006 15.2782 7.91085 15.1743 8.31182L16.6263 8.68818ZM2.19765 5.0053L1.51393 7.12954L2.94178 7.58912L3.62551 5.46488L2.19765 5.0053ZM20.3737 5.46488L21.0574 7.58912L22.4853 7.12954L21.8015 5.0053L20.3737 5.46488ZM6.57581 3.25H17.4234V1.75H6.57581V3.25ZM11.9989 10.75C11.08 10.75 10.2514 10.3762 9.65594 9.77316L8.58854 10.827C9.45533 11.705 10.6642 12.25 11.9989 12.25V10.75ZM17.7543 10.75C16.8351 10.75 16.0062 10.376 15.4108 9.77261L14.3431 10.8262C15.21 11.7046 16.4192 12.25 17.7543 12.25V10.75ZM6.24489 10.75C5.01071 10.75 3.66987 10.082 2.98292 9.13091L1.76692 10.0092C2.75107 11.3718 4.55562 12.25 6.24489 12.25V10.75ZM9.42027 8.31182C9.05755 9.71116 7.77512 10.75 6.24489 10.75V12.25C8.46871 12.25 10.3406 10.7393 10.8723 8.68818L9.42027 8.31182ZM15.1743 8.31182C14.8116 9.71116 13.5292 10.75 11.9989 10.75V12.25C14.2227 12.25 16.0947 10.7393 16.6263 8.68818L15.1743 8.31182ZM21.0163 9.13091C20.3293 10.082 18.9885 10.75 17.7543 10.75V12.25C19.4436 12.25 21.2481 11.3718 22.2323 10.0092L21.0163 9.13091ZM21.0574 7.58912C21.2445 8.1704 21.2773 8.30138 21.2321 8.59103L22.7141 8.82231C22.8204 8.1415 22.6682 7.69774 22.4853 7.12954L21.0574 7.58912ZM22.2323 10.0092C22.317 9.89189 22.4323 9.73648 22.5239 9.53046C22.6166 9.32192 22.6713 9.09674 22.7141 8.82231L21.2321 8.59103C21.1992 8.80184 21.1705 8.88229 21.1532 8.92111C21.1349 8.96244 21.1136 8.99609 21.0163 9.13091L22.2323 10.0092ZM21.8015 5.0053C21.5943 4.36137 21.421 3.81957 21.2305 3.39553C21.0329 2.95545 20.7867 2.57024 20.3932 2.27649L19.4959 3.47854C19.6081 3.56231 19.7211 3.69586 19.8623 4.01018C20.0107 4.34054 20.1561 4.78877 20.3737 5.46488L21.8015 5.0053ZM17.4234 3.25C18.1131 3.25 18.5651 3.25121 18.9101 3.292C19.2342 3.33033 19.3859 3.39642 19.4959 3.47854L20.3932 2.27649C19.9974 1.9811 19.5603 1.85843 19.0862 1.80238C18.6329 1.74879 18.0773 1.75 17.4234 1.75V3.25ZM1.51393 7.12954C1.33104 7.69774 1.17882 8.1415 1.28506 8.82231L2.76712 8.59103C2.72192 8.30137 2.75469 8.1704 2.94178 7.58912L1.51393 7.12954ZM2.98292 9.13091C2.88555 8.99609 2.86433 8.96244 2.84595 8.92111C2.8287 8.88229 2.80002 8.80184 2.76712 8.59103L1.28506 8.82231C1.32789 9.09674 1.38259 9.32192 1.4753 9.53046C1.56689 9.73648 1.68222 9.89189 1.76692 10.0092L2.98292 9.13091ZM3.62551 5.46488C3.84313 4.78877 3.98854 4.34054 4.13694 4.01018C4.27813 3.69586 4.39107 3.56231 4.50329 3.47854L3.60604 2.27649C3.2125 2.57024 2.96633 2.95545 2.76865 3.39553C2.57817 3.81957 2.40491 4.36137 2.19765 5.0053L3.62551 5.46488ZM6.57581 1.75C5.92189 1.75 5.36625 1.74879 4.91299 1.80238C4.43891 1.85843 4.00177 1.9811 3.60604 2.27649L4.50329 3.47854C4.61332 3.39642 4.76495 3.33033 5.08911 3.292C5.43408 3.25121 5.88614 3.25 6.57581 3.25V1.75Z" fill="white"/>
<path d="M3 10.5V15.5C3 18.3284 3 19.7426 3.87868 20.6213C4.75736 21.5 6.17157 21.5 9 21.5H15C17.8284 21.5 19.2426 21.5 20.1213 20.6213C21 19.7426 21 18.3284 21 15.5V10.5" stroke="white" stroke-width="1.5"/>
<path d="M7 18H11" stroke="white" stroke-width="1.5" stroke-linecap="round"/>
</svg>
