<svg width="32" height="32" viewBox="0 0 32 32" fill="none" xmlns="http://www.w3.org/2000/svg">
<path d="M24.3259 11.9668L23.5807 12.0514L23.5807 12.0514L24.3259 11.9668ZM24.9221 17.22L25.6674 17.1354L25.6674 17.1354L24.9221 17.22ZM7.09088 17.22L6.34566 17.1354L6.34566 17.1354L7.09088 17.22ZM7.68713 11.9668L8.43235 12.0514L7.68713 11.9668ZM5.93689 19.829L5.36579 19.3429L5.36579 19.3429L5.93689 19.829ZM26.0761 19.829L25.505 20.3152L25.505 20.3152L26.0761 19.829ZM19.0331 5.83168H18.2831C18.2831 6.15227 18.4869 6.4374 18.7902 6.54125L19.0331 5.83168ZM12.9799 5.83168L13.2229 6.54125C13.5262 6.4374 13.7299 6.15227 13.7299 5.83168H12.9799ZM20.7088 26.9291C20.8542 26.5413 20.6576 26.109 20.2697 25.9636C19.8819 25.8183 19.4496 26.0149 19.3042 26.4027L20.7088 26.9291ZM12.7088 26.4027C12.5634 26.0149 12.1312 25.8183 11.7433 25.9636C11.3554 26.109 11.1588 26.5413 11.3042 26.9291L12.7088 26.4027ZM23.7094 23.2494H8.3036V24.7494H23.7094V23.2494ZM23.5807 12.0514L24.1769 17.3046L25.6674 17.1354L25.0711 11.8822L23.5807 12.0514ZM7.8361 17.3046L8.43235 12.0514L6.94191 11.8822L6.34566 17.1354L7.8361 17.3046ZM6.50799 20.3152C7.24719 19.4468 7.71104 18.4064 7.8361 17.3046L6.34566 17.1354C6.25595 17.9259 5.92167 18.6899 5.36579 19.3429L6.50799 20.3152ZM24.1769 17.3046C24.302 18.4064 24.7658 19.4468 25.505 20.3152L26.6472 19.3429C26.0914 18.6899 25.7571 17.9259 25.6674 17.1354L24.1769 17.3046ZM8.3036 23.2494C7.34381 23.2494 6.64113 22.7722 6.30982 22.1884C5.98592 21.6177 5.99341 20.9197 6.50799 20.3152L5.36579 19.3429C4.41767 20.4567 4.38959 21.8439 5.00526 22.9287C5.61352 24.0005 6.82554 24.7494 8.3036 24.7494V23.2494ZM23.7094 24.7494C25.1875 24.7494 26.3995 24.0005 27.0078 22.9287C27.6234 21.8439 27.5954 20.4567 26.6472 19.3429L25.505 20.3152C26.0196 20.9197 26.0271 21.6176 25.7032 22.1884C25.3719 22.7722 24.6692 23.2494 23.7094 23.2494V24.7494ZM19.7831 5.83168V5.6934H18.2831V5.83168H19.7831ZM25.0711 11.8822C24.7115 8.71378 22.3578 6.17724 19.276 5.12212L18.7902 6.54125C21.4214 7.44212 23.2973 9.55457 23.5807 12.0514L25.0711 11.8822ZM13.7299 5.83168V5.6934H12.2299V5.83168H13.7299ZM8.43235 12.0514C8.71574 9.55457 10.5916 7.44212 13.2229 6.54125L12.737 5.12212C9.65519 6.17724 7.30154 8.71378 6.94191 11.8822L8.43235 12.0514ZM16.0065 3.41693C17.2639 3.41693 18.2831 4.43617 18.2831 5.6934H19.7831C19.7831 3.60768 18.0922 1.91693 16.0065 1.91693V3.41693ZM16.0065 1.91693C13.9208 1.91693 12.2299 3.60768 12.2299 5.6934H13.7299C13.7299 4.43617 14.7492 3.41693 16.0065 3.41693V1.91693ZM19.3042 26.4027C18.8359 27.6521 17.5528 28.5825 16.0065 28.5825V30.0825C18.1536 30.0825 20.0126 28.7868 20.7088 26.9291L19.3042 26.4027ZM16.0065 28.5825C14.4602 28.5825 13.1771 27.6521 12.7088 26.4027L11.3042 26.9291C12.0004 28.7868 13.8594 30.0825 16.0065 30.0825V28.5825Z" fill="#232323"/>
</svg>
