<svg width="24" height="24" viewBox="0 0 24 24" fill="none" xmlns="http://www.w3.org/2000/svg">
<g id="Group 1707480699">
<g id="Ellipse 4">
<circle cx="12" cy="12" r="12" fill="#1E1E1E"/>
<circle cx="12" cy="12" r="12" fill="#F43F5E" fill-opacity="0.3"/>
</g>
<path id="Vector" fill-rule="evenodd" clip-rule="evenodd" d="M12 22C17.5228 22 22 17.5228 22 12C22 6.47715 17.5228 2 12 2C6.47715 2 2 6.47715 2 12C2 17.5228 6.47715 22 12 22ZM12 24C18.6274 24 24 18.6274 24 12C24 5.37258 18.6274 0 12 0C5.37258 0 0 5.37258 0 12C0 18.6274 5.37258 24 12 24Z" fill="#F43F5E"/>
<g id="Group 1707480696">
<path id="Vector_2" d="M14.4358 5.92714C13.8478 5.36181 13.079 5 12.1971 5C10.4559 5 9.03125 6.42462 9.03125 8.16583V11.309C9.43829 10.902 9.93577 10.5628 10.5011 10.3593V8.16583C10.5011 7.21608 11.2699 6.46985 12.1971 6.46985C13.1468 6.46985 13.8931 7.23869 13.8931 8.16583V10.3593C14.4358 10.5854 14.9333 10.902 15.3403 11.309V8.16583C15.3629 7.28392 15.0011 6.49246 14.4358 5.92714Z" fill="white"/>
<path id="Vector_3" d="M12.1992 19.0195C14.6845 19.0195 16.6992 17.0048 16.6992 14.5195C16.6992 12.0342 14.6845 10.0195 12.1992 10.0195C9.71394 10.0195 7.69922 12.0342 7.69922 14.5195C7.69922 17.0048 9.71394 19.0195 12.1992 19.0195Z" fill="#F43F5E"/>
<path id="Vector_4" d="M12.1993 17.7346C13.9728 17.7346 15.4104 16.297 15.4104 14.5236C15.4104 12.7501 13.9728 11.3125 12.1993 11.3125C10.4259 11.3125 8.98828 12.7501 8.98828 14.5236C8.98828 16.297 10.4259 17.7346 12.1993 17.7346Z" fill="#AF152F"/>
<path id="Union" fill-rule="evenodd" clip-rule="evenodd" d="M12.0494 12.7864C12.1196 12.7247 12.2021 12.6523 12.3166 12.6523C12.4311 12.6523 12.5134 12.7246 12.5836 12.7862L12.5847 12.7872C12.6552 12.849 12.7169 12.9013 12.7762 12.9102C12.8348 12.9191 12.9496 12.8593 13.0598 12.8009C13.1149 12.7717 13.1691 12.7439 13.2287 12.7351C13.2882 12.7263 13.3618 12.7505 13.3997 12.8112C13.4545 12.8991 13.4305 13.0035 13.3804 13.0898C13.3302 13.1761 13.2528 13.2571 13.1717 13.3299C13.0095 13.4755 12.83 13.5869 12.83 13.5869C12.8198 13.5933 12.808 13.5967 12.796 13.5967H11.8371C11.8251 13.5966 11.8134 13.5932 11.8032 13.5869C11.8032 13.5869 11.6236 13.4755 11.4615 13.3299C11.3804 13.2571 11.3029 13.1761 11.2528 13.0898C11.2026 13.0035 11.1786 12.8991 11.2334 12.8112C11.2713 12.7505 11.3449 12.7263 11.4045 12.7351C11.464 12.7439 11.5182 12.7717 11.5733 12.8009C11.6836 12.8593 11.7983 12.9191 11.857 12.9102C11.9163 12.9013 11.978 12.849 12.0484 12.7872L12.0494 12.7864ZM11.8144 13.7296C11.8219 13.7267 11.8298 13.7252 11.8379 13.7252L12.7954 13.7252C12.8034 13.7252 12.8113 13.7267 12.8187 13.7296C13.0952 13.8378 13.3199 14.0967 13.4788 14.3994C13.6377 14.702 13.7309 15.0504 13.7309 15.3523C13.7309 15.7425 13.5608 15.9838 13.2987 16.108C13.0367 16.2321 12.692 16.2523 12.3166 16.2523C11.9412 16.2523 11.5966 16.2321 11.3345 16.108C11.0724 15.9838 10.9023 15.7425 10.9023 15.3523C10.9023 15.0504 10.9955 14.702 11.1543 14.3994C11.3132 14.0967 11.5379 13.8378 11.8144 13.7296Z" fill="#FF9500"/>
</g>
</g>
</svg>
