<svg width="24" height="24" viewBox="0 0 24 24" fill="none" xmlns="http://www.w3.org/2000/svg">
<path d="M6 0C5.175 0 4.5 0.675 4.5 1.5V22.5C4.5 23.325 5.175 24 6 24H21C21.825 24 22.5 23.325 22.5 22.5V6L16.5 0H6Z" fill="#E2E5E7"/>
<path d="M18 6H22.5L16.5 0V4.5C16.5 5.325 17.175 6 18 6Z" fill="#B0B7BD"/>
<path d="M22.5 10.5L18 6H22.5V10.5Z" fill="#CAD1D8"/>
<path d="M19.5 19.5C19.5 19.9125 19.1625 20.25 18.75 20.25H2.25C1.8375 20.25 1.5 19.9125 1.5 19.5V12C1.5 11.5875 1.8375 11.25 2.25 11.25H18.75C19.1625 11.25 19.5 11.5875 19.5 12V19.5Z" fill="#F15642"/>
<path d="M4.76562 14.2187C4.76562 14.0207 4.92162 13.8047 5.17287 13.8047H6.55812C7.33812 13.8047 8.04013 14.3267 8.04013 15.3272C8.04013 16.2752 7.33812 16.8032 6.55812 16.8032H5.55687V17.5952C5.55687 17.8592 5.38887 18.0084 5.17287 18.0084C4.97487 18.0084 4.76562 17.8592 4.76562 17.5952V14.2187ZM5.55687 14.5599V16.0539H6.55812C6.96012 16.0539 7.27812 15.6992 7.27812 15.3272C7.27812 14.9079 6.96012 14.5599 6.55812 14.5599H5.55687Z" fill="white"/>
<path d="M9.21478 18.0091C9.01678 18.0091 8.80078 17.9011 8.80078 17.6379V14.2314C8.80078 14.0161 9.01678 13.8594 9.21478 13.8594H10.588C13.3285 13.8594 13.2685 18.0091 10.642 18.0091H9.21478ZM9.59278 14.5914V17.2779H10.588C12.2073 17.2779 12.2793 14.5914 10.588 14.5914H9.59278Z" fill="white"/>
<path d="M14.2415 14.6401V15.5934H15.7708C15.9868 15.5934 16.2028 15.8094 16.2028 16.0186C16.2028 16.2166 15.9868 16.3786 15.7708 16.3786H14.2415V17.6379C14.2415 17.8479 14.0923 18.0091 13.8823 18.0091C13.6183 18.0091 13.457 17.8479 13.457 17.6379V14.2314C13.457 14.0161 13.619 13.8594 13.8823 13.8594H15.9875C16.2515 13.8594 16.4075 14.0161 16.4075 14.2314C16.4075 14.4234 16.2515 14.6394 15.9875 14.6394H14.2415V14.6401Z" fill="white"/>
<path d="M18.75 20.25H4.5V21H18.75C19.1625 21 19.5 20.6625 19.5 20.25V19.5C19.5 19.9125 19.1625 20.25 18.75 20.25Z" fill="#CAD1D8"/>
</svg>
