<svg width="24" height="24" viewBox="0 0 24 24" fill="none" xmlns="http://www.w3.org/2000/svg">
<path d="M6 0C5.175 0 4.5 0.675 4.5 1.5V22.5C4.5 23.325 5.175 24 6 24H21C21.825 24 22.5 23.325 22.5 22.5V6L16.5 0H6Z" fill="#E2E5E7"/>
<path d="M18 6H22.5L16.5 0V4.5C16.5 5.325 17.175 6 18 6Z" fill="#B0B7BD"/>
<path d="M22.5 10.5L18 6H22.5V10.5Z" fill="#CAD1D8"/>
<path d="M19.5 19.5C19.5 19.9125 19.1625 20.25 18.75 20.25H2.25C1.8375 20.25 1.5 19.9125 1.5 19.5V12C1.5 11.5875 1.8375 11.25 2.25 11.25H18.75C19.1625 11.25 19.5 11.5875 19.5 12V19.5Z" fill="#A066AA"/>
<path d="M4.34375 14.2116C4.34375 14.0136 4.499 13.7969 4.751 13.7969H6.137C6.91625 13.7969 7.61825 14.3189 7.61825 15.3201C7.61825 16.2681 6.91625 16.7954 6.137 16.7954H5.13425V17.5874C5.13425 17.8521 4.96775 18.0014 4.751 18.0014C4.553 18.0014 4.34375 17.8521 4.34375 17.5874V14.2116ZM5.13425 14.5529V16.0461H6.13625C6.5375 16.0461 6.8555 15.6921 6.8555 15.3201C6.8555 14.9001 6.5375 14.5529 6.13625 14.5529H5.13425Z" fill="white"/>
<path d="M8.37966 14.2716C8.37966 14.0549 8.42766 13.8456 8.73966 13.8456C8.95491 13.8456 9.00366 13.8996 9.16491 14.0549L11.1494 16.5381V14.2116C11.1494 14.0136 11.3227 13.7969 11.5274 13.7969C11.7434 13.7969 11.9527 14.0136 11.9527 14.2116V17.5874C11.9527 17.8521 11.7907 17.9526 11.6347 18.0014C11.4254 18.0014 11.3227 17.9534 11.1494 17.7921L9.16491 15.2729V17.5881C9.16491 17.8529 9.00291 18.0021 8.78691 18.0021C8.57091 18.0021 8.37891 17.8529 8.37891 17.5881V14.2716H8.37966Z" fill="white"/>
<path d="M16.4644 17.5379C16.0384 17.8912 15.5164 18.0419 14.9892 18.0419C13.7292 18.0419 12.8359 17.3219 12.8359 15.8947C12.8359 14.6834 13.7779 13.7422 15.0424 13.7422C15.5164 13.7422 16.0377 13.9042 16.4097 14.2702C16.7757 14.6294 16.2477 15.1634 15.8884 14.8462C15.6664 14.6294 15.3544 14.4682 15.0424 14.4682C14.3172 14.4682 13.6159 15.0494 13.6159 15.8947C13.6159 16.7827 14.2032 17.3219 14.9892 17.3219C15.3544 17.3219 15.6664 17.2139 15.8884 17.0519V16.3154H14.9892C14.4552 16.3154 14.5092 15.5827 14.9892 15.5827H16.1884C16.4104 15.5827 16.6137 15.7514 16.6137 15.9374V17.2147C16.6137 17.3219 16.5664 17.4232 16.4644 17.5379Z" fill="white"/>
<path d="M18.75 20.25H4.5V21H18.75C19.1625 21 19.5 20.6625 19.5 20.25V19.5C19.5 19.9125 19.1625 20.25 18.75 20.25Z" fill="#CAD1D8"/>
</svg>
