<svg width="30" height="30" viewBox="0 0 42 42" fill="none" xmlns="http://www.w3.org/2000/svg">
<g id="checkmark-circle-02-solid-rounded 1">
<path id="Vector" fill-rule="evenodd" clip-rule="evenodd" d="M2.18359 20.999C2.18359 31.389 10.6062 39.8115 20.9961 39.8115C31.386 39.8115 39.8086 31.389 39.8086 20.999C39.8086 10.6092 31.386 2.18652 20.9961 2.18652C10.6062 2.18652 2.18359 10.6092 2.18359 20.999ZM29.1786 14.459C29.891 15.1121 29.9391 16.2191 29.2862 16.9316L19.6612 27.4315C19.3385 27.7834 18.8863 27.9882 18.4091 27.9987C17.9318 28.009 17.4712 27.824 17.1337 27.4865L12.7587 23.1115C12.0752 22.4281 12.0752 21.32 12.7587 20.6366C13.4421 19.9532 14.5501 19.9532 15.2335 20.6366L18.3161 23.7192L26.706 14.5665C27.3591 13.8541 28.4661 13.8059 29.1786 14.459Z" fill="#34C759"/>
</g>
</svg>
