<svg width="18" height="18" viewBox="0 0 18 18" fill="none" xmlns="http://www.w3.org/2000/svg">
<g id="Frame">
<path id="Vector" d="M8.32515 2.25C5.58793 2.25493 4.15457 2.32213 3.23855 3.23816C2.25 4.22669 2.25 5.81773 2.25 8.99978C2.25 12.1819 2.25 13.7729 3.23855 14.7614C4.22708 15.75 5.81813 15.75 9.00023 15.75C12.1823 15.75 13.7733 15.75 14.7619 14.7614C15.6779 13.8455 15.7451 12.4121 15.75 9.67485" stroke="#AEAEB2" stroke-width="1.125" stroke-linecap="round" stroke-linejoin="round"/>
<path id="Vector_2" d="M15.8035 3.02363C16.0237 2.80445 16.0244 2.44829 15.8053 2.22814C15.586 2.00798 15.2299 2.00719 15.0097 2.22637L15.8035 3.02363ZM7.85309 9.35138C7.63297 9.57053 7.63222 9.9267 7.85137 10.1469C8.07052 10.367 8.42669 10.3678 8.64689 10.1486L7.85309 9.35138ZM11.9999 1.6875C11.6893 1.68753 11.4375 1.93939 11.4375 2.25005C11.4376 2.56071 11.6894 2.81253 12.0001 2.8125L11.9999 1.6875ZM15.1875 6C15.1875 6.31066 15.4393 6.5625 15.75 6.5625C16.0606 6.5625 16.3125 6.31066 16.3125 6H15.1875ZM15.0097 2.22637L7.85309 9.35138L8.64689 10.1486L15.8035 3.02363L15.0097 2.22637ZM15.1195 1.86641C14.5938 1.77332 13.8012 1.73022 13.1686 1.70903C12.8461 1.69824 12.5547 1.69286 12.3439 1.69018C12.2384 1.68884 12.1528 1.68817 12.0935 1.68784C12.0638 1.68766 12.0407 1.68758 12.0248 1.68755C12.0169 1.68752 12.0108 1.68751 12.0067 1.68751C12.0046 1.6875 12.0029 1.6875 12.0018 1.6875C12.0013 1.6875 12.0002 1.6875 11.9999 1.6875C11.9999 1.6875 11.9999 1.6875 12 2.25C12.0001 2.8125 12.0001 2.8125 12.0001 2.8125C12.0003 2.8125 12.0007 2.8125 12.0012 2.8125C12.002 2.8125 12.0034 2.8125 12.0052 2.81251C12.0089 2.81251 12.0145 2.81252 12.0219 2.81254C12.0367 2.81258 12.0586 2.81266 12.0871 2.81282C12.1441 2.81314 12.227 2.81378 12.3295 2.81509C12.5348 2.81771 12.8182 2.82293 13.1309 2.8334C13.7683 2.85475 14.4863 2.89679 14.9233 2.97418L15.1195 1.86641ZM15.75 6C16.3125 6 16.3125 6.00004 16.3125 6C16.3125 5.99969 16.3125 5.9987 16.3125 5.99814C16.3125 5.99702 16.3125 5.99541 16.3125 5.99332C16.3125 5.98914 16.3125 5.98304 16.3125 5.97512C16.3124 5.95928 16.3123 5.93612 16.3122 5.90645C16.3118 5.84711 16.3111 5.7616 16.3098 5.65611C16.3071 5.4453 16.3017 5.15387 16.2909 4.83152C16.2697 4.19893 16.2266 3.4064 16.1336 2.88082L15.0258 3.0768C15.1031 3.5138 15.1452 4.23185 15.1666 4.86922C15.177 5.18185 15.1822 5.46523 15.1849 5.6705C15.1862 5.77304 15.1868 5.85588 15.1872 5.91288C15.1873 5.94137 15.1874 5.96339 15.1875 5.97818C15.1875 5.98556 15.1875 5.99114 15.1875 5.99481C15.1875 5.99665 15.1875 5.99801 15.1875 5.99888C15.1875 5.99931 15.1875 5.99981 15.1875 6C15.1875 5.99999 15.1875 6 15.75 6ZM14.9233 2.97418C14.9611 2.98088 14.9818 2.99507 14.9933 3.00665C15.0049 3.01824 15.0191 3.03886 15.0258 3.0768L16.1336 2.88082C16.0405 2.35479 15.6457 1.9596 15.1195 1.86641L14.9233 2.97418Z" fill="#AEAEB2"/>
</g>
</svg>
