<svg width="108" height="66" viewBox="0 0 108 66" fill="none" xmlns="http://www.w3.org/2000/svg">
<g id="Group 1">
<path id="Background" d="M29.8149 55.0228C28.6258 55.0228 27.4854 54.5504 26.6446 53.7096C25.8037 52.8688 25.3314 51.7283 25.3314 50.5392C25.3314 49.3501 25.8037 48.2097 26.6446 47.3689C27.4854 46.528 28.6258 46.0556 29.8149 46.0556H4.92495C3.73584 46.0556 2.59543 45.5833 1.75461 44.7424C0.913778 43.9016 0.441406 42.7612 0.441406 41.5721C0.441406 40.383 0.913778 39.2425 1.75461 38.4017C2.59543 37.5609 3.73584 37.0885 4.92495 37.0885H30.4532C31.6423 37.0885 32.7827 36.6161 33.6236 35.7753C34.4644 34.9344 34.9368 33.794 34.9368 32.6049C34.9368 31.4158 34.4644 30.2754 33.6236 29.4345C32.7827 28.5937 31.6423 28.1213 30.4532 28.1213H14.4977C13.3086 28.1213 12.1682 27.649 11.3274 26.8081C10.4865 25.9673 10.0142 24.8269 10.0142 23.6378C10.0142 22.4486 10.4865 21.3082 11.3274 20.4674C12.1682 19.6265 13.3086 19.1542 14.4977 19.1542H40.0268C38.8377 19.1542 37.6973 18.6818 36.8564 17.841C36.0156 17.0001 35.5432 15.8597 35.5432 14.6706C35.5432 13.4815 36.0156 12.3411 36.8564 11.5002C37.6973 10.6594 38.8377 10.187 40.0268 10.187H102.572C103.761 10.187 104.901 10.6594 105.742 11.5002C106.583 12.3411 107.055 13.4815 107.055 14.6706C107.055 15.8597 106.583 17.0001 105.742 17.841C104.901 18.6818 103.761 19.1542 102.572 19.1542H77.0432C78.2323 19.1542 79.3727 19.6265 80.2135 20.4674C81.0543 21.3082 81.5267 22.4486 81.5267 23.6378C81.5267 24.8269 81.0543 25.9673 80.2135 26.8081C79.3727 27.649 78.2323 28.1213 77.0432 28.1213H91.0837C92.2728 28.1213 93.4133 28.5937 94.2541 29.4345C95.0949 30.2754 95.5673 31.4158 95.5673 32.6049C95.5673 33.794 95.0949 34.9344 94.2541 35.7753C93.4133 36.6161 92.2728 37.0885 91.0837 37.0885H84.5905C81.4795 37.0885 78.9581 39.0943 78.9581 41.5721C78.9581 44.0498 82.7872 46.0556 82.7872 46.0556C83.9763 46.0556 85.1167 46.528 85.9576 47.3689C86.7984 48.2097 87.2708 49.3501 87.2708 50.5392C87.2708 51.7283 86.7984 52.8688 85.9576 53.7096C85.1167 54.5504 83.9763 55.0228 82.7872 55.0228H29.8149ZM98.1044 32.6049C98.1075 31.7219 98.3722 30.8597 98.865 30.127C99.3578 29.3943 100.057 28.8241 100.873 28.4884C101.69 28.1526 102.588 28.0664 103.453 28.2406C104.319 28.4147 105.114 28.8415 105.737 29.467C106.36 30.0924 106.784 30.8885 106.955 31.7548C107.126 32.621 107.037 33.5186 106.698 34.334C106.36 35.1495 105.787 35.8464 105.053 36.3366C104.318 36.8268 103.455 37.0885 102.572 37.0885C101.984 37.0875 101.403 36.9708 100.86 36.7449C100.317 36.519 99.8245 36.1885 99.4096 35.7721C98.9948 35.3558 98.6659 34.8618 98.442 34.3184C98.218 33.7749 98.1033 33.1927 98.1044 32.6049Z" fill="#006736" fill-opacity="0.07"/>
<path id="Shape" d="M73.2129 60.3305L35.6878 64.9381C35.0132 65.02 34.3337 64.8309 33.7983 64.4125C33.2629 63.9941 32.9153 63.3804 32.8318 62.706L27.0546 15.6541C27.0136 15.3169 27.108 14.9772 27.3172 14.7095C27.5263 14.4418 27.8331 14.268 28.1702 14.2262L28.1835 14.2245L31.2968 13.8756L33.815 13.5921L35.6221 13.3904L68.9487 9.63958L74.9087 53.113L75.4441 57.4742C75.5261 58.1487 75.3373 58.8282 74.919 59.3636C74.5007 59.8991 73.8872 60.2468 73.2129 60.3305Z" fill="white" stroke="#A7CCBA" stroke-opacity="0.5" stroke-width="0.983237" stroke-miterlimit="10" stroke-linecap="round"/>
<path id="Rectangle" opacity="0.17" d="M67.3308 12.3741L72.7258 51.7725L73.2111 55.725C73.2893 56.3324 73.123 56.9459 72.7489 57.4307C72.3748 57.9155 71.8234 58.2319 71.216 58.3102L37.6117 62.4363C37.0035 62.5072 36.392 62.3337 35.9117 61.9538C35.4314 61.5739 35.1216 61.0188 35.0505 60.4105L29.8281 17.8772C29.7867 17.5398 29.881 17.1997 30.0903 16.9318C30.2996 16.664 30.6067 16.4902 30.9441 16.4488L35.1015 15.9383" fill="#006736" fill-opacity="0.32"/>
<g id="Rectangle_2">
<path id="Vector" d="M79.1514 54.0852H41.345C40.2027 54.0852 39.2734 53.1559 39.2734 52.0136V3.31338C39.2734 2.17112 40.2027 1.24182 41.345 1.24182H70.5372C71.0903 1.24182 71.6103 1.45714 72.0015 1.84811L80.6158 10.4571C81.0073 10.8484 81.223 11.3688 81.223 11.9224V52.0136C81.223 53.1559 80.2937 54.0852 79.1514 54.0852Z" fill="white"/>
<path id="Vector_2" d="M41.3444 1.73287C40.4732 1.73287 39.7645 2.44163 39.7645 3.3128V52.013C39.7645 52.8842 40.4732 53.593 41.3444 53.593H79.1509C80.022 53.593 80.7308 52.8842 80.7308 52.013V11.9218C80.7308 11.4996 80.5663 11.1027 80.2677 10.8043L71.6534 2.19528C71.3551 1.89709 70.9584 1.73287 70.5366 1.73287H41.3444ZM41.3444 0.749634H70.5366C71.2161 0.749634 71.8678 1.01945 72.3485 1.49981L80.9627 10.1088C81.4438 10.5895 81.714 11.2417 81.714 11.9218V52.013C81.714 53.4286 80.5665 54.5762 79.1509 54.5762H41.3444C39.9288 54.5762 38.7812 53.4286 38.7812 52.013V3.3128C38.7812 1.8972 39.9288 0.749634 41.3444 0.749634Z" fill="#A7CCBA" fill-opacity="0.5"/>
</g>
<path id="Shape_2" d="M70.8672 1.30029V9.63818C70.8672 10.148 71.0697 10.637 71.4303 10.9975C71.7908 11.3581 72.2797 11.5606 72.7896 11.5606H80.9996" stroke="#A7CCBA" stroke-opacity="0.5" stroke-width="0.983237" stroke-miterlimit="10" stroke-linecap="round" stroke-linejoin="round"/>
<g id="Group 50">
<path id="Path 53" d="M50.0234 32.2574V34.8634C50.0234 35.5546 50.298 36.2174 50.7867 36.7061C51.2754 37.1949 51.9383 37.4694 52.6294 37.4694H68.2664C68.9575 37.4694 69.6203 37.1949 70.109 36.7061C70.5978 36.2174 70.8723 35.5546 70.8723 34.8634V32.2574" stroke="#A7CCBA" stroke-opacity="0.5" stroke-width="0.983237" stroke-linecap="round" stroke-linejoin="round"/>
<path id="Path 54" d="M53.9297 24.2259L60.445 17.7106L66.9603 24.2259" stroke="#A7CCBA" stroke-opacity="0.5" stroke-width="0.983237" stroke-linecap="round" stroke-linejoin="round"/>
<path id="Line 1" d="M60.4492 17.8121V33.3796" stroke="#A7CCBA" stroke-opacity="0.5" stroke-width="0.983237" stroke-linecap="round" stroke-linejoin="round"/>
</g>
</g>
</svg>
