<svg xmlns="http://www.w3.org/2000/svg" width="32.113" height="19.677" viewBox="0 0 32.113 19.677">
    <g data-name="Group 94">
        <path data-name="Path 118" d="M-10.2.306a13.614 13.614 0 0 1 18.964 0l.63.616a.642.642 0 0 1 0 .928L7.239 3.964a.339.339 0 0 1-.474 0L5.9 3.117a9.5 9.5 0 0 0-13.228 0l-.928.908a.339.339 0 0 1-.474 0l-2.161-2.113a.642.642 0 0 1 0-.928zm23.42 4.362 1.917 1.876a.642.642 0 0 1 0 .928l-8.65 8.473a.679.679 0 0 1-.948 0L-.6 9.931a.177.177 0 0 0-.237 0l-6.136 6.014a.679.679 0 0 1-.948 0l-8.656-8.466a.642.642 0 0 1 0-.928l1.917-1.876a.679.679 0 0 1 .948 0l6.143 6.014a.177.177 0 0 0 .237 0L-1.2 4.675a.679.679 0 0 1 .948 0l6.143 6.014a.177.177 0 0 0 .237 0l6.143-6.014a.672.672 0 0 1 .949-.007z" style="fill:#3a99fb" transform="translate(16.779 3.539)"/>
    </g>
</svg>
