<svg width="42" height="42" viewBox="0 0 42 42" fill="none" xmlns="http://www.w3.org/2000/svg">
<g id="alert-circle-solid-rounded 1">
<path id="Vector" fill-rule="evenodd" clip-rule="evenodd" d="M2.1875 21C2.1875 10.6101 10.6101 2.1875 21 2.1875C31.3899 2.1875 39.8125 10.6101 39.8125 21C39.8125 31.3899 31.3899 39.8125 21 39.8125C10.6101 39.8125 2.1875 31.3899 2.1875 21ZM19.25 28C19.25 27.0335 20.03 26.25 20.9921 26.25H21.0079C21.97 26.25 22.75 27.0335 22.75 28C22.75 28.9665 21.97 29.75 21.0079 29.75H20.9921C20.03 29.75 19.25 28.9665 19.25 28ZM19.25 21C19.25 21.9665 20.0335 22.75 21 22.75C21.9665 22.75 22.75 21.9665 22.75 21V14C22.75 13.0335 21.9665 12.25 21 12.25C20.0335 12.25 19.25 13.0335 19.25 14V21Z" fill="#FF9500"/>
</g>
</svg>
